# xmcd
#
# Track frame offsets:
#	150
#	24235
#	41930
#	63567
#	80795
#	103685
#	121517
#	137407
#	160435
#	179202
#	201217
#
# Disc length: 2711 seconds
#
# Revision: 1
# Processed by: cddbd v1.5PL3 Copyright (c) Steve Scherf et al.
# Submitted via: CDex 1.50Beta5
#
DISCID=9b0a950b
DTITLE=斎藤誠 - WOMEN
DYEAR=1900
DGENRE=Pop
TTITLE0=GO NOW
TTITLE1=WOO BABE
TTITLE2=SO COLD,THAT WOMAN
TTITLE3=CALL ME DADDY
TTITLE4=君への想い
TTITLE5=FLY TO THE CLOUD
TTITLE6=PLEASE!
TTITLE7=SMILE AND SLEEP
TTITLE8=SILENT WIDOW
TTITLE9=DIRTY THIRTY MAN
TTITLE10=WOMEN(instrumental)
EXTD=
EXTT0=
EXTT1=
EXTT2=
EXTT3=
EXTT4=
EXTT5=
EXTT6=
EXTT7=
EXTT8=
EXTT9=
EXTT10=
PLAYORDER=
